<svg xmlns="http://www.w3.org/2000/svg" width="179" height="26" viewBox="0 0 179 26">
  <g id="Groupe_5" data-name="Groupe 5" transform="translate(202.5 -1012)">
    <path id="Polygone_12" data-name="Polygone 12" d="M13.5,0l3.645,8.578L27,9.167l-7.6,5.891L21.843,24,13.5,19.063,5.157,24,7.6,15.058,0,9.167l9.855-.589Z" transform="translate(-202.5 1012)" fill="#ebd072"/>
    <path id="Polygone_13" data-name="Polygone 13" d="M13.5,0l3.645,8.578L27,9.167l-7.6,5.891L21.843,24,13.5,19.063,5.157,24,7.6,15.058,0,9.167l9.855-.589Z" transform="translate(-164.5 1012)" fill="#ebd072"/>
    <path id="Polygone_14" data-name="Polygone 14" d="M13.5,0l3.645,8.578L27,9.167l-7.6,5.891L21.843,24,13.5,19.063,5.157,24,7.6,15.058,0,9.167l9.855-.589Z" transform="translate(-126.5 1014)" fill="#ebd072"/>
    <path id="Polygone_15" data-name="Polygone 15" d="M13.5,0l3.645,8.578L27,9.167l-7.6,5.891L21.843,24,13.5,19.063,5.157,24,7.6,15.058,0,9.167l9.855-.589Z" transform="translate(-88.5 1014)" fill="#ebd072"/>
    <path id="Polygone_16" data-name="Polygone 16" d="M13.5,0l3.645,8.578L27,9.167l-7.6,5.891L21.843,24,13.5,19.063,5.157,24,7.6,15.058,0,9.167l9.855-.589Z" transform="translate(-50.5 1014)" fill="#ababab"/>
  </g>
</svg>
